HIERARCHY
ROOT Hips
{
    OFFSET   0.000000   0.000000   0.000000
    CHANNELS 6 Xposition Yposition Zposition Zrotation Xrotation Yrotation
    JOINT Chest
    {
        OFFSET   0.000000   8.007230   0.000000
        CHANNELS 3 Zrotation Xrotation Yrotation
        JOINT Chest2
        {
            OFFSET   0.000000  22.077100   0.000000
            CHANNELS 3 Zrotation Xrotation Yrotation
            JOINT Neck
            {
                OFFSET   0.000000  23.254800  -0.000021
                CHANNELS 3 Zrotation Xrotation Yrotation
                JOINT Head
                {
                    OFFSET   0.000000  14.370000   1.956610
                    CHANNELS 3 Zrotation Xrotation Yrotation
                    End Site
                    {
                        OFFSET   0.000000  19.566000   0.000000
                    }
                }
            }
            JOINT LeftCollar
            {
                OFFSET   3.911900  19.017000  -0.467063
                CHANNELS 3 Zrotation Xrotation Yrotation
                JOINT LeftShoulder
                {
                    OFFSET  10.383700   0.000000   0.000000
                    CHANNELS 3 Zrotation Xrotation Yrotation
                    JOINT LeftElbow
                    {
                        OFFSET  26.662100   0.001529   0.000325
                        CHANNELS 3 Zrotation Xrotation Yrotation
                        JOINT LeftWrist
                        {
                            OFFSET  28.869000  -0.000011  -0.000096
                            CHANNELS 3 Zrotation Xrotation Yrotation
                            JOINT LeftFinger0
                            {
                                OFFSET   2.044650  -2.323460   3.252850
                                CHANNELS 3 Zrotation Xrotation Yrotation
                                JOINT LeftFinger01
                                {
                                    OFFSET   3.088130   0.000000   0.000000
                                    CHANNELS 3 Zrotation Xrotation Yrotation
                                    JOINT LeftFinger02
                                    {
                                        OFFSET   2.639460   0.000000   0.000000
                                        CHANNELS 3 Zrotation Xrotation Yrotation
                                        End Site
                                        {
                                            OFFSET   2.582190   0.000000   0.000000
                                        }
                                    }
                                }
                            }
                            JOINT LeftFinger1
                            {
                                OFFSET   8.364480   0.000000   3.252850
                                CHANNELS 3 Zrotation Xrotation Yrotation
                                JOINT LeftFinger11
                                {
                                    OFFSET   4.646930   0.000000   0.000000
                                    CHANNELS 3 Zrotation Xrotation Yrotation
                                    JOINT LeftFinger12
                                    {
                                        OFFSET   2.323460   0.000000   0.000000
                                        CHANNELS 3 Zrotation Xrotation Yrotation
                                        End Site
                                        {
                                            OFFSET   2.273050   0.000000   0.000000
                                        }
                                    }
                                }
                            }
                            JOINT LeftFinger2
                            {
                                OFFSET   8.364480   0.000016   1.078090
                                CHANNELS 3 Zrotation Xrotation Yrotation
                                JOINT LeftFinger21
                                {
                                    OFFSET   5.111620   0.000000   0.000000
                                    CHANNELS 3 Zrotation Xrotation Yrotation
                                    JOINT LeftFinger22
                                    {
                                        OFFSET   2.788160   0.000017   0.000000
                                        CHANNELS 3 Zrotation Xrotation Yrotation
                                        End Site
                                        {
                                            OFFSET   2.727660   0.000000   0.000000
                                        }
                                    }
                                }
                            }
                            JOINT LeftFinger3
                            {
                                OFFSET   7.899780   0.000015  -1.078090
                                CHANNELS 3 Zrotation Xrotation Yrotation
                                JOINT LeftFinger31
                                {
                                    OFFSET   4.646920   0.000000   0.000000
                                    CHANNELS 3 Zrotation Xrotation Yrotation
                                    JOINT LeftFinger32
                                    {
                                        OFFSET   2.323470   0.000000   0.000000
                                        CHANNELS 3 Zrotation Xrotation Yrotation
                                        End Site
                                        {
                                            OFFSET   2.273050   0.000000   0.000000
                                        }
                                    }
                                }
                            }
                            JOINT LeftFinger4
                            {
                                OFFSET   7.435090   0.000000  -3.252850
                                CHANNELS 3 Zrotation Xrotation Yrotation
                                JOINT LeftFinger41
                                {
                                    OFFSET   3.717550   0.000000   0.000000
                                    CHANNELS 3 Zrotation Xrotation Yrotation
                                    JOINT LeftFinger42
                                    {
                                        OFFSET   1.858760   0.000000   0.000000
                                        CHANNELS 3 Zrotation Xrotation Yrotation
                                        End Site
                                        {
                                            OFFSET   1.818440   0.000000   0.000000
                                        }
                                    }
                                }
                            }
                        }
                    }
                }
            }
            JOINT RightCollar
            {
                OFFSET  -3.911900  19.017000  -0.467062
                CHANNELS 3 Zrotation Xrotation Yrotation
                JOINT RightShoulder
                {
                    OFFSET -10.383700   0.000015   0.000000
                    CHANNELS 3 Zrotation Xrotation Yrotation
                    JOINT RightElbow
                    {
                        OFFSET -26.662100   0.001341   0.000385
                        CHANNELS 3 Zrotation Xrotation Yrotation
                        JOINT RightWrist
                        {
                            OFFSET -28.869000   0.000025  -0.000080
                            CHANNELS 3 Zrotation Xrotation Yrotation
                            JOINT RightFinger0
                            {
                                OFFSET  -2.044650  -2.323490   3.252850
                                CHANNELS 3 Zrotation Xrotation Yrotation
                                JOINT RightFinger01
                                {
                                    OFFSET  -3.088130   0.000000   0.000000
                                    CHANNELS 3 Zrotation Xrotation Yrotation
                                    JOINT RightFinger02
                                    {
                                        OFFSET  -2.639460   0.000000   0.000000
                                        CHANNELS 3 Zrotation Xrotation Yrotation
                                        End Site
                                        {
                                            OFFSET  -2.582190   0.000000   0.000000
                                        }
                                    }
                                }
                            }
                            JOINT RightFinger1
                            {
                                OFFSET  -8.364480   0.000000   3.252850
                                CHANNELS 3 Zrotation Xrotation Yrotation
                                JOINT RightFinger11
                                {
                                    OFFSET  -4.646930   0.000000   0.000000
                                    CHANNELS 3 Zrotation Xrotation Yrotation
                                    JOINT RightFinger12
                                    {
                                        OFFSET  -2.323470   0.000000   0.000000
                                        CHANNELS 3 Zrotation Xrotation Yrotation
                                        End Site
                                        {
                                            OFFSET  -2.273050   0.000000   0.000000
                                        }
                                    }
                                }
                            }
                            JOINT RightFinger2
                            {
                                OFFSET  -8.364480   0.000000   1.078090
                                CHANNELS 3 Zrotation Xrotation Yrotation
                                JOINT RightFinger21
                                {
                                    OFFSET  -5.111610   0.000000   0.000000
                                    CHANNELS 3 Zrotation Xrotation Yrotation
                                    JOINT RightFinger22
                                    {
                                        OFFSET  -2.788160   0.000000   0.000000
                                        CHANNELS 3 Zrotation Xrotation Yrotation
                                        End Site
                                        {
                                            OFFSET  -2.727660   0.000000   0.000000
                                        }
                                    }
                                }
                            }
                            JOINT RightFinger3
                            {
                                OFFSET  -7.899780   0.000000  -1.078090
                                CHANNELS 3 Zrotation Xrotation Yrotation
                                JOINT RightFinger31
                                {
                                    OFFSET  -4.646920   0.000000   0.000000
                                    CHANNELS 3 Zrotation Xrotation Yrotation
                                    JOINT RightFinger32
                                    {
                                        OFFSET  -2.323470   0.000000   0.000000
                                        CHANNELS 3 Zrotation Xrotation Yrotation
                                        End Site
                                        {
                                            OFFSET  -2.273050   0.000000   0.000000
                                        }
                                    }
                                }
                            }
                            JOINT RightFinger4
                            {
                                OFFSET  -7.435090   0.000000  -3.252850
                                CHANNELS 3 Zrotation Xrotation Yrotation
                                JOINT RightFinger41
                                {
                                    OFFSET  -3.717550   0.000000   0.000000
                                    CHANNELS 3 Zrotation Xrotation Yrotation
                                    JOINT RightFinger42
                                    {
                                        OFFSET  -1.858770   0.000000   0.000000
                                        CHANNELS 3 Zrotation Xrotation Yrotation
                                        End Site
                                        {
                                            OFFSET  -1.818440   0.000000   0.000000
                                        }
                                    }
                                }
                            }
                        }
                    }
                }
            }
        }
    }
    JOINT LeftHip
    {
        OFFSET   9.783010   0.000000   0.000000
        CHANNELS 3 Zrotation Xrotation Yrotation
        JOINT LeftKnee
        {
            OFFSET   0.000070 -41.789100   0.000028
            CHANNELS 3 Zrotation Xrotation Yrotation
            JOINT LeftAnkle
            {
                OFFSET   0.000087 -41.133200  -0.000100
                CHANNELS 3 Zrotation Xrotation Yrotation
                JOINT LeftToe
                {
                    OFFSET   0.000000  -6.358960  14.674500
                    CHANNELS 3 Zrotation Xrotation Yrotation
                    End Site
                    {
                        OFFSET   0.000000   0.000000   3.913200
                    }
                }
            }
        }
    }
    JOINT RightHip
    {
        OFFSET  -9.783020   0.000000   0.000000
        CHANNELS 3 Zrotation Xrotation Yrotation
        JOINT RightKnee
        {
            OFFSET   0.000044 -41.789100  -0.000870
            CHANNELS 3 Zrotation Xrotation Yrotation
            JOINT RightAnkle
            {
                OFFSET  -0.000090 -41.133200  -0.000245
                CHANNELS 3 Zrotation Xrotation Yrotation
                JOINT RightToe
                {
                    OFFSET   0.000000  -6.358960  14.674500
                    CHANNELS 3 Zrotation Xrotation Yrotation
                    End Site
                    {
                        OFFSET   0.000000   0.000000   3.913200
                    }
                }
            }
        }
    }
}
MOTION
Frames: 6
Frame Time:   0.016667
 -0.764327  89.257200   1.528960   4.784100 -11.704600  20.197700  -1.665190  12.423100   1.913240  -3.908790  24.775000   4.365020  -1.184430  -4.396770  -0.090971  -1.978520  -8.904340  -4.388700  -9.501730  -7.677730   8.057340 -59.915300  21.243000 -11.436500   0.827450  10.118600 -24.282400  10.404200  -8.839830  -2.571030  43.992100  40.227300 -55.649000 -33.280800   0.001201   0.003012 -11.640400  -0.002122   0.001586 -39.371000  -0.764184   0.931942 -32.216500   0.000937   0.005432 -22.551600  -0.002454  -0.001359 -33.940600  -0.671817   1.001090 -50.917700  -0.000363  -0.000000 -33.911200   0.005315   0.001756 -30.043700  -5.009700   8.584720 -45.629900   0.001151   0.001442 -30.389500   0.000724  -0.003015 -36.786500  -9.310190  12.209300 -56.675100  -0.003143   0.001340 -37.745500  -0.004268  -0.002927   1.267810  -3.469500  10.166500  39.551000 -16.314100  64.912800 -10.318800   8.543570  17.792700 -41.841100  13.304700  16.505100 -38.756400  40.621600  75.392100  37.060700  -0.013513  -0.017714  13.431900  -0.011222  -0.009173  28.596300   2.415730   4.386760  23.470100  -0.007213  -0.001022  16.429100  -0.005990   0.000342  27.498700  -1.160580  -2.243230  27.980800  -0.003771   0.006195  18.635200  -0.001001   0.004611  27.618300  -1.140820  -2.205760  29.603300  -0.002771   0.005104  19.715800  -0.000408   0.003657  30.145500  -1.231150  -2.160040  45.248200  -0.005430   0.004217  30.135300  -0.001748   0.006231   2.788320  13.258400   2.768430   0.603851   0.245012  -1.656620  -6.335550  -0.309846  -9.660280  -0.000000   0.000000  -0.000000  -0.678167  14.675900 -10.557500   0.476019   6.245500 -17.488400   1.599330  -7.425470  -6.594330  -0.000000   0.000000  -0.000000
 -0.736508  89.278900   1.594620   4.301610 -11.417500  19.074900  -1.592430  12.068700   1.946210  -3.744580  24.068400   4.399780  -1.268340  -4.262150  -0.094445  -2.115670  -8.629730  -3.965270  -9.635820  -7.640810   8.017020 -60.506100  20.865200 -10.455800   0.867594   9.838220 -23.703800  10.432700  -8.712600  -2.362480  43.937600  40.248700 -55.193500 -33.338600   0.001194   0.003008 -11.669300  -0.002110   0.001590 -39.154700  -1.020840   1.253010 -32.043200   0.000935   0.005432 -22.430500  -0.002454  -0.001359 -33.372600  -0.885840   1.351850 -50.072200  -0.000361   0.000000 -33.348100   0.005299   0.001777 -29.814600  -4.993310   8.638050 -45.287600   0.001151   0.001441 -30.161600   0.000723  -0.003014 -36.435300  -9.445950  12.530500 -56.154500  -0.003143   0.001338 -37.398900  -0.004268  -0.002928   1.688780  -3.426170  10.126300  39.504700 -14.523800  63.730700 -10.092000   8.493510  18.587000 -39.072300  13.640100  16.045900 -37.576900  38.915600  72.658000  37.707500  -0.007073  -0.009532  13.840800  -0.007842  -0.006758  29.586500   2.504710   4.380790  24.288000  -0.007140  -0.008462  17.001600  -0.005646  -0.004418  27.526300  -1.091060  -2.052660  28.647700  -0.009883  -0.015428  19.079400  -0.009911  -0.007312  27.795600  -1.095720  -2.044080  30.325900  -0.011611  -0.018688  20.197000  -0.011940  -0.008634  31.270200  -1.233750  -1.990120  46.942600  -0.023822  -0.015348  31.263800  -0.019088   0.006224   2.793360  12.966900   2.561390   0.639287   0.239899  -1.228810  -6.058740  -0.574619  -8.831800   0.000000   0.000000   0.000000  -0.611583  14.544900 -10.431400   0.457869   5.652650 -16.928800   1.592760  -7.172980  -6.255100  -0.000000   0.000000   0.000000
 -0.689324  89.299000   1.674750   3.832890 -11.151500  17.908500  -1.513700  11.718900   2.002760  -3.570650  23.370700   4.473540  -1.353560  -4.106660  -0.097128  -2.254460  -8.312720  -3.520340  -9.779600  -7.624800   7.914110 -61.143500  20.354100  -9.453010   0.924081   9.564480 -23.062700  10.451400  -8.560930  -2.219170  43.916800  40.300800 -54.778000 -33.396400   0.001187   0.003003 -11.698200  -0.002096   0.001594 -38.996400  -1.277400   1.574150 -31.920700   0.000933   0.005432 -22.344600  -0.002455  -0.001358 -32.815800  -1.099770   1.702670 -49.248800  -0.000359   0.000000 -32.799700   0.005282   0.001800 -29.626900  -4.980850   8.681410 -45.007600   0.001152   0.001440 -29.975100   0.000722  -0.003012 -36.105000  -9.581060  12.852000 -55.780100  -0.003142   0.001337 -37.149600  -0.004268  -0.002928   2.140200  -3.411680  10.059300  39.391400 -12.475600  62.583300  -9.824650   8.387810  19.057500 -36.479000  13.967200  15.987200 -36.602300  37.305600  70.001300  38.305600  -0.000634   0.000636  14.304300  -0.003257  -0.001626  30.256900   2.523050   4.336970  24.847900  -0.007050  -0.020957  17.393500  -0.005276  -0.012239  27.548600  -1.073210  -2.025430  29.241800  -0.020013  -0.048406  19.475100  -0.024208  -0.025115  27.934600  -1.089280  -2.020980  31.236700  -0.026417  -0.055935  20.803600  -0.030865  -0.027295  32.484200  -1.250980  -1.965860  48.770000  -0.053424  -0.044180  32.480800  -0.046015   0.006174   2.781930  12.728000   2.314430   0.672731   0.230862  -0.706961  -5.774640  -0.833374  -8.008410   0.000000   0.000000   0.000000  -0.571584  14.450800 -10.298800   0.461020   5.072640 -16.342000   1.599520  -6.924440  -5.895290  -0.000000   0.000000  -0.000000
 -0.622260  89.310500   1.771830   3.399530 -10.932500  16.714100  -1.423410  11.389000   2.059090  -3.375060  22.713500   4.546060  -1.451410  -3.948070  -0.099857  -2.412590  -7.990460  -2.996690  -9.971050  -7.587310   7.741890 -61.816100  19.652000  -8.448010   1.011590   9.309120 -22.430900  10.520500  -8.370980  -2.214660  43.921800  40.252800 -54.929000 -33.330300   0.001195   0.003004 -11.665200  -0.002073   0.001592 -39.008700  -1.079150   1.331640 -31.923500   0.000935   0.005431 -22.346600  -0.002458  -0.001358 -32.453900  -0.926262   1.441500 -48.697100  -0.000361  -0.000000 -32.432300   0.005285   0.001802 -29.587900  -4.979480   8.690020 -44.949800   0.001152   0.001441 -29.936600   0.000723  -0.003013 -36.118000  -9.380500  12.581900 -55.783100  -0.003143   0.001337 -37.151600  -0.004268  -0.002928   2.477800  -3.377440   9.990330  39.369400 -10.309700  61.654600  -9.232500   7.647710  19.141300 -34.125300  13.977100  16.147600 -36.300500  36.247800  67.676400  38.506200  -0.001899   0.002585  14.633100  -0.001967   0.005663  31.034900   2.334140   3.895120  25.485400  -0.006942  -0.033734  17.839700  -0.004885  -0.019724  27.761700  -1.252200  -2.339640  30.751200  -0.029970  -0.072201  20.480300  -0.036842  -0.036718  28.166100  -1.276360  -2.345110  33.051500  -0.041437  -0.085963  22.012300  -0.048906  -0.040489  34.135900  -1.511440  -2.261900  51.268700  -0.079867  -0.061686  34.145000  -0.067021   0.005873   2.749480  12.587800   2.049580   0.698176   0.181793  -0.028596  -5.518240  -1.059500  -7.285990  -0.000000   0.000000   0.000000  -0.566811  14.422200 -10.165000   0.484894   4.517070 -15.774600   1.627540  -6.696690  -5.477190  -0.000000   0.000000   0.000000
 -0.546727  89.319000   1.879370   2.990670 -10.754000  15.512400  -1.322170  11.085800   2.092040  -3.156040  22.110600   4.582190  -1.546730  -3.822470  -0.102893  -2.569380  -7.732250  -2.353300 -10.182600  -7.565240   7.551420 -62.499700  18.824300  -7.451500   1.106550   9.032220 -21.819500  10.663700  -8.254470  -2.210590  43.918500  40.159500 -55.143500 -33.264200   0.001203   0.003005 -11.632100  -0.002049   0.001590 -39.035600  -0.806837   0.997456 -31.943100   0.000938   0.005431 -22.360200  -0.002460  -0.001358 -32.170100  -0.686187   1.082910 -48.263400  -0.000362   0.000000 -32.143500   0.005288   0.001802 -29.582300  -4.979280   8.691240 -44.941600   0.001152   0.001442 -29.931100   0.000724  -0.003014 -36.226400  -9.118550  12.208600 -55.804100  -0.003144   0.001337 -37.165600  -0.004268  -0.002926   2.776810  -3.346460   9.948490  39.500600  -8.140720  60.803500  -8.492000   6.555850  19.111200 -32.047300  13.969200  16.306800 -36.532000  35.668900  65.573900  38.534800  -0.004142   0.003284  14.791800  -0.001579   0.012569  31.930200   1.923770   3.090050  26.201200  -0.006822  -0.041456  18.340800  -0.004481  -0.024147  28.065600  -1.580160  -2.916210  32.716900  -0.035911  -0.084641  21.789400  -0.044089  -0.042440  28.394500  -1.603640  -2.915830  35.416000  -0.050492  -0.102536  23.587100  -0.059553  -0.047311  36.001800  -1.970910  -2.751080  54.105500  -0.095101  -0.069925  36.034300  -0.078440   0.005358   2.735990  12.522500   1.817740   0.710363   0.124954   0.702779  -5.277560  -1.271720  -6.636000  -0.000000   0.000000   0.000000  -0.566171  14.424800  -9.988770   0.514614   4.001090 -15.263800   1.657050  -6.483590  -5.032140   0.000000   0.000000  -0.000000
 -0.472006  89.327200   1.995090   2.600440 -10.624400  14.324000  -1.214610  10.825500   2.089930  -2.920220  21.594800   4.549180  -1.628660  -3.777210  -0.107009  -2.705930  -7.637500  -1.501440 -10.405300  -7.570990   7.402180 -63.176900  17.905100  -6.463510   1.189110   8.683540 -21.277100  10.876500  -8.257410  -2.163510  43.823100  39.997100 -55.210500 -33.275400   0.001193   0.003011 -11.637700  -0.002034   0.001588 -39.122100  -0.709166   0.872984 -32.015400   0.000935   0.005432 -22.410800  -0.002458  -0.001357 -31.924300  -0.593737   0.954164 -47.893600  -0.000362   0.000000 -31.897200   0.005286   0.001803 -29.625700  -4.983220   8.681100 -45.006500   0.001152   0.001441 -29.974300   0.000723  -0.003013 -36.333700  -9.048400  12.062300 -55.943900  -0.003144   0.001338 -37.258700  -0.004269  -0.002926   3.063130  -3.332630  10.000100  39.931800  -6.101360  59.935700  -7.815880   5.731570  18.995400 -30.081800  13.371400  16.229400 -37.165500  35.796100  63.503900  38.194300  -0.006790   0.005273  14.622700  -0.001128   0.015975  33.203500   1.373630   2.140240  27.215300  -0.006698  -0.034117  19.050800  -0.004170  -0.019791  28.327500  -1.911070  -3.495620  35.231100  -0.028949  -0.066562  23.463900  -0.035495  -0.032747  28.568700  -1.888960  -3.422370  38.523300  -0.039951  -0.079658  25.656600  -0.047171  -0.035933  38.122900  -2.434350  -3.114340  57.318200  -0.080070  -0.055481  38.173900  -0.064546   0.004770   2.757930  12.502900   1.681590   0.702217   0.094999   1.410500  -5.052890  -1.482500  -6.077380  -0.000000   0.000000   0.000000  -0.536030  14.437800  -9.717210   0.530925   3.549890 -14.877400   1.669090  -6.285270  -4.573350   0.000000   0.000000   0.000000
